<svg xmlns="http://www.w3.org/2000/svg" xmlns:xlink="http://www.w3.org/1999/xlink" width="1930" zoomAndPan="magnify" viewBox="300 590 760 820" height="2429" preserveAspectRatio="xMidYMid meet" version="1.0" style="paint-order:stroke fill" stroke="#000000" stroke-width="30" stroke-linejoin="round"><defs><g/></defs><g fill="#f0ede8" fill-opacity="1"><g transform="translate(325.627682, 1237.475284)"><g><path d="M 93.59375 122.84375 C 94.894531 93.59375 97.003906 35.257812 99.921875 -52.15625 C 102.847656 -139.570312 104.3125 -203.429688 104.3125 -243.734375 C 104.3125 -284.679688 102.847656 -349.1875 99.921875 -437.25 C 97.003906 -525.320312 94.894531 -583.984375 93.59375 -613.234375 L 272.984375 -623.953125 L 276.875 -618.109375 L 271.03125 -587.890625 L 159.890625 -564.484375 L 159.890625 74.09375 L 272.984375 97.5 L 276.875 104.3125 L 271.03125 133.5625 Z M 93.59375 122.84375 "/></g></g></g><g fill="#f0ede8" fill-opacity="1"><g transform="translate(626.88159, 1237.475284)"><g/></g></g><g fill="#f0ede8" fill-opacity="1"><g transform="translate(819.918092, 1237.475284)"><g><path d="M 24.375 127.71875 L 30.21875 97.5 L 141.359375 74.09375 L 141.359375 -564.484375 L 28.265625 -587.890625 L 24.375 -594.71875 L 30.21875 -623.953125 L 207.65625 -613.234375 C 206.363281 -583.984375 204.253906 -525.8125 201.328125 -438.71875 C 198.398438 -351.625 196.9375 -287.601562 196.9375 -246.65625 C 196.9375 -206.363281 198.398438 -142.019531 201.328125 -53.625 C 204.253906 34.769531 206.363281 93.59375 207.65625 122.84375 L 28.265625 133.5625 Z M 24.375 127.71875 "/></g></g></g><g fill="#f0ede8" fill-opacity="1"><g transform="translate(552.526841, 1168.198089)"><g><path d="M 228.8125 -307.5625 L 135.953125 -303.109375 C 111.679688 -301.628906 94.960938 -296.304688 85.796875 -287.140625 C 76.640625 -277.972656 70.820312 -261.007812 68.34375 -236.25 L 39.375 -231.796875 C 40.363281 -238.722656 41.847656 -253.453125 43.828125 -275.984375 C 45.804688 -298.523438 47.046875 -319.703125 47.546875 -339.515625 L 52 -343.234375 L 147.09375 -337.28125 L 303.109375 -333.578125 L 309.0625 -317.96875 C 263.488281 -259.53125 221.632812 -203.6875 183.5 -150.4375 C 145.363281 -97.195312 116.390625 -55.71875 96.578125 -26 L 206.53125 -32.6875 C 226.34375 -34.175781 241.695312 -41.976562 252.59375 -56.09375 C 263.488281 -70.207031 271.410156 -92.617188 276.359375 -123.328125 L 306.078125 -127.046875 C 305.585938 -123.578125 304.347656 -115.648438 302.359375 -103.265625 C 300.378906 -90.878906 298.398438 -75.769531 296.421875 -57.9375 C 294.441406 -40.113281 293.453125 -23.273438 293.453125 -7.421875 L 281.5625 4.453125 L 72.8125 -2.234375 L 34.171875 1.484375 L 26.75 -17.09375 Z M 228.8125 -307.5625 "/></g></g></g><path stroke-linecap="butt" transform="matrix(0.749741, 0, 0, 0.749741, 447.58911, 973.811977)" fill="none" stroke-linejoin="miter" d="M 0.000979062 23.998569 L 735.749858 23.998569 " stroke="#f0ede8" stroke-width="48" stroke-opacity="1" stroke-miterlimit="4"/></svg>